<svg xmlns="http://www.w3.org/2000/svg" width="1000" height="1250" viewBox="0 0 1000 1250">
  <defs>
    <radialGradient id="g" cx="50%" cy="38%" r="75%">
      <stop offset="0%" stop-color="#33313a"/>
      <stop offset="55%" stop-color="#1a1a1a"/>
      <stop offset="100%" stop-color="#0c0c0c"/>
    </radialGradient>
    <filter id="noise"><feTurbulence type="fractalNoise" baseFrequency="0.85" numOctaves="2" stitchTiles="stitch"/><feColorMatrix type="matrix" values="0 0 0 0 0  0 0 0 0 0  0 0 0 0 0  0 0 0 0.05 0"/></filter>
  </defs>
  <rect width="1000" height="1250" fill="url(#g)"/>
  <g><path d="M 5.6,0.0 L 37.2,156.2 L 49.7,312.5 L 43.0,468.8 L 19.0,625.0 L 6.6,781.2 L -1.6,937.5 L -38.5,1093.8 L -12.1,1250.0 L 79.3,1250.0 L 52.9,1093.8 L 89.9,937.5 L 98.0,781.2 L 110.4,625.0 L 134.4,468.8 L 141.2,312.5 L 128.7,156.2 L 97.0,0.0 Z" fill="#ffffff" opacity="0.059"/>
<path d="M 182.9,0.0 L 188.5,156.2 L 168.8,312.5 L 127.1,468.8 L 107.4,625.0 L 113.4,781.2 L 96.0,937.5 L 126.8,1093.8 L 116.0,1250.0 L 207.4,1250.0 L 218.2,1093.8 L 187.4,937.5 L 204.8,781.2 L 198.8,625.0 L 218.6,468.8 L 260.3,312.5 L 279.9,156.2 L 274.4,0.0 Z" fill="#000000" opacity="0.044"/>
<path d="M 368.5,0.0 L 348.3,156.2 L 330.6,312.5 L 310.4,468.8 L 305.8,625.0 L 315.6,781.2 L 319.1,937.5 L 327.2,1093.8 L 363.3,1250.0 L 454.7,1250.0 L 418.6,1093.8 L 410.5,937.5 L 407.0,781.2 L 397.2,625.0 L 401.8,468.8 L 422.1,312.5 L 439.7,156.2 L 459.9,0.0 Z" fill="#000000" opacity="0.079"/>
<path d="M 445.1,0.0 L 409.9,156.2 L 391.5,312.5 L 396.5,468.8 L 430.5,625.0 L 422.5,781.2 L 475.8,937.5 L 470.9,1093.8 L 485.6,1250.0 L 577.1,1250.0 L 562.3,1093.8 L 567.3,937.5 L 513.9,781.2 L 521.9,625.0 L 487.9,468.8 L 482.9,312.5 L 501.4,156.2 L 536.5,0.0 Z" fill="#000000" opacity="0.088"/>
<path d="M 583.9,0.0 L 571.5,156.2 L 595.5,312.5 L 608.9,468.8 L 620.0,625.0 L 651.9,781.2 L 658.2,937.5 L 593.4,1093.8 L 611.4,1250.0 L 702.8,1250.0 L 684.8,1093.8 L 749.6,937.5 L 743.3,781.2 L 711.4,625.0 L 700.4,468.8 L 686.9,312.5 L 662.9,156.2 L 675.3,0.0 Z" fill="#000000" opacity="0.052"/>
<path d="M 701.8,0.0 L 718.7,156.2 L 747.6,312.5 L 759.6,468.8 L 775.0,625.0 L 775.0,781.2 L 716.6,937.5 L 732.2,1093.8 L 700.4,1250.0 L 791.8,1250.0 L 823.7,1093.8 L 808.1,937.5 L 866.4,781.2 L 866.4,625.0 L 851.0,468.8 L 839.0,312.5 L 810.1,156.2 L 793.3,0.0 Z" fill="#ffffff" opacity="0.043"/>
<path d="M 864.7,0.0 L 880.1,156.2 L 893.6,312.5 L 892.7,468.8 L 873.5,625.0 L 853.8,781.2 L 857.1,937.5 L 859.1,1093.8 L 877.1,1250.0 L 968.5,1250.0 L 950.5,1093.8 L 948.6,937.5 L 945.3,781.2 L 965.0,625.0 L 984.1,468.8 L 985.1,312.5 L 971.5,156.2 L 956.1,0.0 Z" fill="#000000" opacity="0.079"/></g>
  <ellipse cx="500.0" cy="450.0" rx="340.0" ry="425.00000000000006" fill="#ffffff" opacity="0.05"/>
  <rect width="1000" height="1250" filter="url(#noise)"/>
  <rect x="20" y="20" width="960" height="1210" fill="none" stroke="#ffffff" stroke-opacity="0.10"/>
  <text x="500.0" y="1204" fill="#ffffff" fill-opacity="0.35" font-family="Inter, Arial, sans-serif" font-size="11" letter-spacing="6" text-anchor="middle">FORM · PLACEHOLDER IMAGERY</text>
</svg>